{"title":"Point Break 1991.1080p.BluRay.DTS.x264 . NVEE","uid":10238345,"size":3682292879,"categoryP":"video","categoryS":"hd___movies","magnet":"?xt=urn:btih:5979c5617a08753608b8a3fe23384d33cc59f6df&amp;dn=Point+Break+1991.1080p.BluRay.DTS.x264+.+NVEE&amp;tr=udp%3A%2F%2Ftracker.openbittorrent.com%3A80&amp;tr=udp%3A%2F%2Fopen.demonii.com%3A1337&amp;tr=udp%3A%2F%2Ftracker.coppersurfer.tk%3A6969&amp;tr=udp%3A%2F%2Fexodus.desync.com%3A6969","seeders":1,"leechers":0,"uploader":".NVEE","files":-1,"time":1401214603,"description":"Quick note :\nIf you require a torrent release I have posted in the past, not seeding,...\nPlease do not hesitate to inform me in any means you find fit to do so.\nTorrent requests also &quot;Always Welcome.&quot;\n\n\nFULL_INFOs\n\n99.99% --- SYNCED GUARANTEED \n\n&quot;Totally scrutinized / analyzed to be a verified torrent.&quot;\n___________________________________________\n\nSource : Blu-ray ~ 1080p\n\n\n\nSpoken Language : English\n\nAudio : 6 ~ Channels Only\n\n\nSubs Info :\n\nEnglish .srt\n\nText #1\nID : 3\nFormat : PGS\nMuxing mode : zlib\nCodec ID : S_HDMV/PGS\nCodec ID/Info : The same subtitle format used on BDs/HD-DVDs\nLanguage : English\nDefault : No\nForced : No\n\nText #2\nID : 4\nFormat : PGS\nMuxing mode : zlib\nCodec ID : S_HDMV/PGS\nCodec ID/Info : The same subtitle format used on BDs/HD-DVDs\nLanguage : Spanish\nDefault : No\nForced : No\n\nText #3\nID : 5\nFormat : PGS\nMuxing mode : zlib\nCodec ID : S_HDMV/PGS\nCodec ID/Info : The same subtitle format used on BDs/HD-DVDs\nLanguage : Chinese\nDefault : No\nForced : No\n\nText #4\nID : 6\nFormat : PGS\nMuxing mode : zlib\nCodec ID : S_HDMV/PGS\nCodec ID/Info : The same subtitle format used on BDs/HD-DVDs\nLanguage : Korean\nDefault : No\nForced : No\n\n\nText #5\nID : 7\nFormat : PGS\nMuxing mode : zlib\nCodec ID : S_HDMV/PGS\nCodec ID/Info : The same subtitle format used on BDs/HD-DVDs\nLanguage : French\nDefault : No\nForced : No\nText #6\n\n\nID : 8\nFormat : PGS\nMuxing mode : zlib\nCodec ID : S_HDMV/PGS\nCodec ID/Info : The same subtitle format used on BDs/HD-DVDs\nLanguage : Spanish\nDefault : No\nForced : No\nAll .srt UTF-8 &amp; .idx subs can be turned On/Off\n_____________________________________\n---------------------------------------------------------------------------------\n\nGeneral Metadata\n\nPoint Break 1991.1080p.BluRay.DTS.x264 . NVEEPoint Break 1991.1080p.BluRay.DTS.x264 . NVEE.mkv\nFormat : Matroska\nFormat version : Version 2\nFile size : 3.43 GiB\nDuration : 2h 2mn\nOverall bit rate : 4 021 Kbps\nEncoded date : UTC 2014-05-18 19:56:33\nWriting application : mkvmerge v6.9.1 ('Blue Panther') 64bit built on Apr 18 2014 18:15:44\nWriting library : libebml v1.3.0 + libmatroska v1.4.1\n\n\nVideo\n\nID : 1\nFormat : AVC\nFormat/Info : Advanced Video Codec\nFormat profile : &lt;a class=&quot;__cf_email__&quot; href=&quot;/cdn-cgi/l/email-protection&quot; data-cfemail=&quot;367e5f515e767a021805&quot;&gt;[email&amp;#160;protected]&lt;/a&gt;&lt;script data-cfhash='f9e31' type=&quot;text/javascript&quot;&gt;\n/* &lt;![CDATA[ */!function(){try{var t=&quot;currentScript&quot;in document?document.currentScript:function(){for(var t=document.getElementsByTagName(&quot;script&quot;),e=t.length;e--;)if(t[e].getAttribute(&quot;data-cfhash&quot;))return t[e]}();if(t&amp;&amp;t.previousSibling){var e,r,n,i,c=t.previousSibling,a=c.getAttribute(&quot;data-cfemail&quot;);if(a){for(e=&quot;&quot;,r=parseInt(a.substr(0,2),16),n=2;a.length-n;n+=2)i=parseInt(a.substr(n,2),16)^r,e+=String.fromCharCode(i);e=document.createTextNode(e),c.parentNode.replaceChild(e,c)}t.parentNode.removeChild(t);}}catch(u){}}()/* ]]&gt; */&lt;/script&gt;\nFormat settings, CABAC : Yes\nFormat settings, ReFrames : 3 frames\nCodec ID : V_MPEG4/ISO/AVC\nDuration : 2h 2mn\nBit rate : 2 426 Kbps\nWidth : 1 920 pixels\nHeight : 1 080 pixels\nDisplay aspect ratio : 16:9\nFrame rate mode : Constant\nFrame rate : 23.976 fps\nColor space : YUV\nChroma subsampling : 4:2:0\nBit depth : 8 bits\nScan type : Progressive\nBits/(Pixel*Frame) : 0.049\nStream size : 2.07 GiB (60%)\nWriting library : x264 core 142 r2409 d6b4e63\nEncoded from Physical Blu-ray / Region Free !\n\n\nAudio\n\nID : 2\nFormat : DTS\nFormat/Info : Digital Theater Systems\nMode : 16\nFormat settings, Endianness : Big\nCodec ID : A_DTS\nDuration : 2h 2mn\nBit rate mode : Constant\nBit rate : 1 509 Kbps\nChannel(s) : 6 channels\nChannel positions : Front: L C R, Side: L R, LFE\nSampling rate : 48.0 KHz\nBit depth : 24 bits\nCompression mode : Lossy\nDelay relative to video : 6ms\nStream size : 1.29 GiB (38%)\nLanguage : English\nDefault : Yes\nForced : No\nEncoded from Physical Blu-ray 6 Channel audio &quot;Always&quot;.\n\n\nEnj0y !\n","torrent":{"xt":"urn:btih:5979c5617a08753608b8a3fe23384d33cc59f6df","amp;dn":"Point+Break+1991.1080p.BluRay.DTS.x264+.+NVEE","amp;tr":["udp%3A%2F%2Ftracker.openbittorrent.com%3A80","udp%3A%2F%2Fopen.demonii.com%3A1337","udp%3A%2F%2Ftracker.coppersurfer.tk%3A6969","udp%3A%2F%2Fexodus.desync.com%3A6969"],"infoHash":"5979c5617a08753608b8a3fe23384d33cc59f6df","infoHashBuffer":{"type":"Buffer","data":[89,121,197,97,122,8,117,54,8,184,163,254,35,56,77,51,204,89,246,223]},"announce":[],"urlList":[]}}